<svg width="133" height="114" viewBox="0 0 133 114" fill="none" xmlns="http://www.w3.org/2000/svg">
<path d="M96.1016 0C109.532 0 119.47 3.61989 125.809 9.85156C132.255 15.9758 134.243 24.8397 131.771 36.4434C130.16 44.2865 126.883 50.8409 121.94 56.1055C117.106 61.3699 111.25 65.2916 104.374 67.8701L118.557 108.161C118.664 108.483 118.718 108.752 118.718 108.967C118.825 109.182 118.825 109.504 118.718 109.934C118.503 110.793 117.966 111.6 117.106 112.352C116.354 112.996 115.494 113.318 114.527 113.318H96.6377C94.7042 113.318 93.3614 112.835 92.6094 111.868C91.9646 110.794 91.4804 109.826 91.1582 108.967L79.3936 72.0605H59.8926L51.835 109.289C51.6202 110.471 51.0285 111.438 50.0615 112.19C49.2022 112.942 48.1816 113.318 47 113.318H29.4326C28.2511 113.318 27.3917 112.942 26.8545 112.19C26.3173 111.438 26.1562 110.471 26.3711 109.289L35.2568 67.1279C26.7306 66.0187 20.1455 58.729 20.1455 49.9004C20.1457 49.761 20.259 49.6484 20.3984 49.6484H38.9414L40.5332 42.0938H27.1816C19.8188 42.0938 13.8496 36.1245 13.8496 28.7617C13.8497 27.7801 14.6463 26.9844 15.6279 26.9844H43.7178L45.1592 20.1455H17.7754C7.95834 20.1455 3.37495e-05 12.1872 0 2.37012C0 1.06117 1.06117 0 2.37012 0H96.1016ZM64.083 51.5928H84.873C90.6749 51.5928 95.2953 50.2495 98.7334 47.5635C102.171 44.8775 104.428 41.117 105.502 36.2822C106.469 31.4475 105.824 27.6334 103.568 24.8398C101.42 22.0464 97.3905 20.6495 91.4814 20.6494H70.6904L64.083 51.5928Z" fill="url(#paint0_linear_5_34)"/>
<defs>
<linearGradient id="paint0_linear_5_34" x1="123.5" y1="105.5" x2="9.5" y2="8.5" gradientUnits="userSpaceOnUse">
<stop offset="0.158654" stop-color="#F68C1E"/>
<stop offset="1" stop-color="#D9480F"/>
</linearGradient>
</defs>
</svg>
