<svg width="430" height="118" viewBox="0 0 430 118" fill="none" xmlns="http://www.w3.org/2000/svg">
<path d="M330.194 25.7285C334.274 25.7285 337.791 26.3658 340.746 27.6406L341.914 28.168C344.794 29.5279 347.074 31.4888 348.754 34.0488C350.631 36.6941 351.869 39.8938 352.466 43.6484C353.063 47.3177 352.978 51.4138 352.21 55.9365C351.954 57.5576 351.655 59.0082 351.314 60.2881C351.058 61.5681 350.717 63.0193 350.29 64.6406C349.181 68.9925 347.688 73.0462 345.811 76.8008C343.934 80.4699 341.629 83.6698 338.898 86.4004C336.167 89.0457 333.01 91.1368 329.426 92.6729C325.927 94.1234 321.959 94.8486 317.522 94.8486C312.914 94.8486 309.074 94.0799 306.002 92.5439C303.015 90.9227 300.797 88.7472 299.346 86.0166L293.202 114.688C293.031 115.627 292.562 116.395 291.794 116.992C291.111 117.589 290.343 117.889 289.49 117.889H276.306C275.367 117.889 274.685 117.589 274.258 116.992C273.746 116.395 273.575 115.627 273.746 114.688L291.794 30.208C291.965 29.2695 292.391 28.5015 293.074 27.9043C293.842 27.3071 294.653 27.0088 295.506 27.0088H307.794C308.647 27.0088 309.287 27.3071 309.714 27.9043C310.226 28.5015 310.397 29.2695 310.227 30.208L309.202 35.0723C311.847 32.3416 314.749 30.1227 317.906 28.416C321.063 26.6241 325.159 25.7285 330.194 25.7285ZM181.46 25.7285C186.153 25.7285 190.164 26.3258 193.492 27.5205C196.82 28.6297 199.465 30.0802 201.428 31.8721C203.476 33.5787 204.884 35.3708 205.652 37.248C206.505 39.04 206.804 40.6191 206.548 41.9844C206.463 42.8375 206.036 43.5629 205.269 44.1602C204.586 44.7575 203.86 45.0566 203.092 45.0566H191.828C191.401 45.0566 191.017 45.014 190.676 44.9287C190.42 44.758 190.207 44.5441 190.036 44.2881C189.097 43.6054 188.201 42.8376 187.348 41.9844C186.495 41.0459 185.385 40.2353 184.021 39.5527C182.741 38.8701 180.948 38.5284 178.645 38.5283C175.829 38.5283 173.524 39.1684 171.732 40.4482C170.025 41.6429 168.959 43.1793 168.532 45.0566C168.276 46.2513 168.404 47.3608 168.916 48.3848C169.513 49.4086 170.879 50.347 173.012 51.2002C175.231 52.0535 178.687 52.95 183.38 53.8887C188.927 54.9126 193.193 56.4482 196.18 58.4961C199.252 60.544 201.215 62.9334 202.068 65.6641C203.007 68.3093 203.135 71.1683 202.452 74.2402C201.684 78.2508 199.764 81.8349 196.692 84.9922C193.62 88.0642 189.609 90.4961 184.66 92.2881C179.711 93.9948 173.908 94.8486 167.252 94.8486C161.961 94.8486 157.524 94.2512 153.94 93.0566C150.441 91.7766 147.711 90.2402 145.748 88.4482C143.785 86.6563 142.42 84.8642 141.652 83.0723C140.969 81.195 140.713 79.6159 140.884 78.3359C141.055 77.3974 141.481 76.6294 142.164 76.0322C142.932 75.435 143.7 75.1368 144.468 75.1367H156.756C157.097 75.1367 157.353 75.1794 157.524 75.2646C157.78 75.35 158.036 75.5632 158.292 75.9043C159.231 76.6723 160.169 77.5688 161.108 78.5928C162.132 79.5313 163.369 80.3418 164.82 81.0244C166.271 81.7071 168.148 82.0488 170.452 82.0488C173.268 82.0488 175.785 81.494 178.004 80.3848C180.223 79.1901 181.545 77.5257 181.972 75.3926C182.313 73.8567 182.143 72.5767 181.46 71.5527C180.777 70.5288 179.284 69.5896 176.98 68.7363C174.676 67.883 171.22 66.9439 166.612 65.9199C162.26 64.8959 158.633 63.5309 155.732 61.8242C152.917 60.1176 150.953 57.9847 149.844 55.4248C148.735 52.7795 148.564 49.6214 149.332 45.9521C150.1 42.6242 151.807 39.4245 154.452 36.3525C157.183 33.2806 160.809 30.7635 165.332 28.8008C169.94 26.7528 175.316 25.7285 181.46 25.7285ZM250.835 25.7285C255.528 25.7285 259.539 26.3258 262.867 27.5205C266.195 28.6297 268.84 30.0802 270.803 31.8721C272.851 33.5787 274.259 35.3708 275.027 37.248C275.88 39.04 276.179 40.6191 275.923 41.9844C275.838 42.8375 275.411 43.5629 274.644 44.1602C273.961 44.7575 273.235 45.0566 272.467 45.0566H261.203C260.776 45.0566 260.392 45.014 260.051 44.9287C259.795 44.758 259.582 44.5441 259.411 44.2881C258.472 43.6054 257.576 42.8376 256.723 41.9844C255.87 41.0459 254.76 40.2353 253.396 39.5527C252.116 38.8701 250.323 38.5284 248.02 38.5283C245.204 38.5283 242.899 39.1684 241.107 40.4482C239.4 41.6429 238.334 43.1793 237.907 45.0566C237.651 46.2513 237.779 47.3608 238.291 48.3848C238.888 49.4086 240.254 50.347 242.387 51.2002C244.606 52.0535 248.062 52.95 252.755 53.8887C258.302 54.9126 262.568 56.4482 265.555 58.4961C268.627 60.544 270.59 62.9334 271.443 65.6641C272.382 68.3093 272.51 71.1683 271.827 74.2402C271.059 78.2508 269.139 81.8349 266.067 84.9922C262.995 88.0642 258.984 90.4961 254.035 92.2881C249.086 93.9948 243.283 94.8486 236.627 94.8486C231.336 94.8486 226.899 94.2512 223.315 93.0566C219.816 91.7766 217.086 90.2402 215.123 88.4482C213.16 86.6563 211.795 84.8642 211.027 83.0723C210.344 81.195 210.088 79.6159 210.259 78.3359C210.43 77.3974 210.856 76.6294 211.539 76.0322C212.307 75.435 213.075 75.1368 213.843 75.1367H226.131C226.472 75.1367 226.728 75.1794 226.899 75.2646C227.155 75.35 227.411 75.5632 227.667 75.9043C228.606 76.6723 229.544 77.5688 230.483 78.5928C231.507 79.5313 232.744 80.3418 234.195 81.0244C235.646 81.7071 237.523 82.0488 239.827 82.0488C242.643 82.0488 245.16 81.494 247.379 80.3848C249.598 79.1901 250.92 77.5257 251.347 75.3926C251.688 73.8567 251.518 72.5767 250.835 71.5527C250.152 70.5288 248.659 69.5896 246.355 68.7363C244.051 67.883 240.595 66.9439 235.987 65.9199C231.635 64.8959 228.008 63.5309 225.107 61.8242C222.292 60.1176 220.328 57.9847 219.219 55.4248C218.11 52.7795 217.939 49.6214 218.707 45.9521C219.475 42.6242 221.182 39.4245 223.827 36.3525C226.558 33.2806 230.184 30.7635 234.707 28.8008C239.315 26.7528 244.691 25.7285 250.835 25.7285ZM401.374 25.7285C407.945 25.7285 413.449 26.9233 417.886 29.3125C422.409 31.6164 425.651 34.9441 427.614 39.2959C429.662 43.5626 430.174 48.6404 429.15 54.5283C428.894 56.1496 428.51 58.0695 427.998 60.2881C427.571 62.4214 427.145 64.3421 426.718 66.0488C425.182 71.8513 422.835 76.9284 419.678 81.2803C416.521 85.6322 412.382 89.0033 407.262 91.3926C402.142 93.6965 395.955 94.8486 388.702 94.8486C382.046 94.8486 376.457 93.6964 371.935 91.3926C367.498 89.0033 364.339 85.6323 362.462 81.2803C360.585 76.9284 360.115 71.8513 361.054 66.0488C361.225 64.3421 361.523 62.4214 361.95 60.2881C362.462 58.0695 362.974 56.1495 363.486 54.5283C365.022 48.6404 367.411 43.5626 370.654 39.2959C373.897 34.9441 378.078 31.6164 383.198 29.3125C388.318 26.9232 394.377 25.7285 401.374 25.7285ZM76.3262 3.56836C86.9929 3.56836 94.8853 6.44326 99.9199 11.3926C105.04 16.2566 106.619 23.2967 104.656 32.5127C103.376 38.7416 100.774 43.9468 96.8486 48.1279C93.0088 52.3092 88.3577 55.4247 82.8965 57.4727L94.1602 89.4727C94.2454 89.7285 94.2881 89.9417 94.2881 90.1123C94.3734 90.2829 94.3733 90.5388 94.2881 90.8799C94.1174 91.5626 93.6904 92.2035 93.0078 92.8008C92.4105 93.3125 91.7278 93.5684 90.96 93.5684H76.752C75.2161 93.5683 74.15 93.184 73.5527 92.416C73.0406 91.5627 72.6563 90.795 72.4004 90.1123L63.0566 60.8008H47.5684L41.168 90.3682C40.9974 91.3069 40.5278 92.0756 39.7598 92.6729C39.0773 93.2699 38.2666 93.5684 37.3281 93.5684H23.376C22.4376 93.5683 21.7548 93.2699 21.3281 92.6729C20.9015 92.0756 20.7737 91.3069 20.9443 90.3682L28.002 56.8828C21.2302 56.0019 16.0002 50.2129 16 43.2012C16 43.0903 16.0903 43 16.2012 43H30.9287L32.1934 37H21.5879C15.7404 36.9998 11.0002 32.2596 11 26.4121C11 25.6324 11.6324 25 12.4121 25H34.7227L35.8672 19.5684H14.1172C6.32059 19.5681 0.000248428 13.2478 0 5.45117C0 4.41158 0.843218 3.56836 1.88281 3.56836H76.3262ZM134.306 27.0088C135.245 27.0088 135.927 27.307 136.354 27.9043C136.781 28.5015 136.909 29.2696 136.738 30.208L123.938 90.3682C123.767 91.3069 123.341 92.0756 122.658 92.6729C121.975 93.27 121.165 93.5683 120.227 93.5684H107.426C106.573 93.5683 105.89 93.27 105.378 92.6729C104.866 92.0756 104.696 91.3069 104.866 90.3682L117.666 30.208C117.837 29.2695 118.306 28.5015 119.074 27.9043C119.842 27.3071 120.653 27.0088 121.506 27.0088H134.306ZM399.838 39.8086C395.657 39.8086 392.158 41.1311 389.342 43.7764C386.526 46.4216 384.478 50.219 383.198 55.168C382.857 56.4479 382.43 58.1549 381.918 60.2881C381.491 62.4213 381.193 64.1282 381.022 65.4082C380.169 70.4429 380.425 74.2834 381.79 76.9287C383.241 79.4885 386.057 80.7686 390.238 80.7686C394.505 80.7685 398.046 79.4886 400.862 76.9287C403.678 74.2834 405.726 70.4429 407.006 65.4082C407.347 64.1282 407.731 62.4213 408.158 60.2881C408.67 58.1549 409.011 56.4479 409.182 55.168C410.035 50.2188 409.737 46.4216 408.286 43.7764C406.835 41.1311 404.019 39.8086 399.838 39.8086ZM322.898 41.0879C319.741 41.0879 316.967 41.8139 314.578 43.2646C312.274 44.7153 310.397 46.5499 308.946 48.7686C307.495 50.9872 306.429 53.3765 305.746 55.9365C305.319 57.4725 304.935 59.0516 304.594 60.6729C304.253 62.2939 303.954 63.9151 303.698 65.5361C303.271 67.9254 303.271 70.187 303.698 72.3203C304.21 74.3683 305.277 76.0751 306.898 77.4404C308.519 78.8056 310.867 79.4883 313.938 79.4883C317.01 79.4882 319.613 78.8057 321.746 77.4404C323.965 75.9898 325.757 74.1125 327.122 71.8086C328.573 69.5047 329.725 66.9874 330.578 64.2568C331.005 62.9768 331.347 61.6534 331.603 60.2881C331.859 58.9229 332.071 57.6002 332.242 56.3203C332.583 53.5897 332.583 51.0725 332.242 48.7686C331.986 46.4646 331.133 44.6299 329.682 43.2646C328.231 41.8141 325.97 41.0879 322.898 41.0879ZM50.8965 44.5439H67.4082C72.016 44.5439 75.6854 43.4779 78.416 41.3447C81.1466 39.2115 82.9387 36.2246 83.792 32.3848C84.56 28.5448 84.0479 25.5146 82.2559 23.2959C80.5491 21.0775 77.3492 19.9688 72.6562 19.9688H56.1445L50.8965 44.5439ZM140.322 0C141.261 4.25184e-05 141.943 0.341798 142.37 1.02441C142.882 1.62171 143.053 2.38957 142.882 3.32812L140.578 13.5684C140.493 14.5071 140.066 15.2748 139.298 15.8721C138.53 16.4693 137.719 16.7685 136.866 16.7686H123.426C122.487 16.7685 121.762 16.4693 121.25 15.8721C120.823 15.2748 120.695 14.5069 120.866 13.5684L123.042 3.32812C123.213 2.38956 123.639 1.62171 124.322 1.02441C125.09 0.341857 125.943 6.10007e-05 126.882 0H140.322Z" fill="url(#paint0_linear_5_46)"/>
<defs>
<linearGradient id="paint0_linear_5_46" x1="0" y1="0" x2="430" y2="130.5" gradientUnits="userSpaceOnUse">
<stop stop-color="#D9480F"/>
<stop offset="0.692308" stop-color="#F68C1E"/>
</linearGradient>
</defs>
</svg>
